HIERARCHY
ROOT hip
{
  OFFSET 0.00112043 5.09927 -9.65472
  CHANNELS 6 Xposition Yposition Zposition Zrotation Xrotation Yrotation
  JOINT abdomen
  {
    OFFSET 0 -1.186 -1.5018
    CHANNELS 3 Zrotation Xrotation Yrotation
    JOINT abdomen2
    {
      OFFSET 0 9.964 0.2134
      CHANNELS 3 Zrotation Xrotation Yrotation
      JOINT chest
      {
        OFFSET 0 13.134 -3.2573
        CHANNELS 3 Zrotation Xrotation Yrotation
        JOINT neck
        {
          OFFSET 0 20.686 -1.6905
          CHANNELS 3 Zrotation Xrotation Yrotation
          JOINT head
          {
            OFFSET 0 7.238 -0.1237
            CHANNELS 3 Zrotation Xrotation Yrotation
            End Site
            {
              OFFSET 0 0 0
            }
          }
        }
        JOINT lCollar
        {
          OFFSET 1.7069 20.075 5.0056
          CHANNELS 3 Zrotation Xrotation Yrotation
          JOINT lShldr
          {
            OFFSET 13.6458 -0.047 -4.849
            CHANNELS 3 Zrotation Xrotation Yrotation
            JOINT lForeArm
            {
              OFFSET 28.3255 -0.9759 2.2888
              CHANNELS 3 Zrotation Xrotation Yrotation
              JOINT lHand
              {
                OFFSET 22.1583 -0.53 10.8316
                CHANNELS 3 Zrotation Xrotation Yrotation
                JOINT lThumb1
                {
                  OFFSET 0.786 0.112 2.5817
                  CHANNELS 3 Zrotation Xrotation Yrotation
                  JOINT lThumb2
                  {
                    OFFSET 0.3601 -0.878 4.2331
                    CHANNELS 3 Zrotation Xrotation Yrotation
                    JOINT lThumb2_End
                    {
                      OFFSET 1.8127 -1.216 2.2227
                      CHANNELS 3 Zrotation Xrotation Yrotation
                      End Site
                      {
                        OFFSET 0.0181 -0.0122 0.0222
                      }
                    }
                  }
                }
                JOINT lCarpal1
                {
                  OFFSET 0.9571 1.114 1.7695
                  CHANNELS 3 Zrotation Xrotation Yrotation
                  JOINT lIndex1
                  {
                    OFFSET 4.1246 0.487 4.1451
                    CHANNELS 3 Zrotation Xrotation Yrotation
                    JOINT lIndex2
                    {
                      OFFSET 3.4052 -1.454 2.7682
                      CHANNELS 3 Zrotation Xrotation Yrotation
                      JOINT lIndex2_End
                      {
                        OFFSET 1.4531 -1.795 1.2713
                        CHANNELS 3 Zrotation Xrotation Yrotation
                        End Site
                        {
                          OFFSET 0.0145 -0.0179 0.0127
                        }
                      }
                    }
                  }
                  JOINT lMid1
                  {
                    OFFSET 5.6954 0.21 2.1184
                    CHANNELS 3 Zrotation Xrotation Yrotation
                    JOINT lMid2
                    {
                      OFFSET 3.9766 -1.54 2.3863
                      CHANNELS 3 Zrotation Xrotation Yrotation
                      JOINT lMid2_End
                      {
                        OFFSET 1.4042 -1.926 1.125
                        CHANNELS 3 Zrotation Xrotation Yrotation
                        End Site
                        {
                          OFFSET 0.014 -0.0193 0.0113
                        }
                      }
                    }
                  }
                }
                JOINT lCarpal2
                {
                  OFFSET 2.0956 0.66 -0.3894
                  CHANNELS 3 Zrotation Xrotation Yrotation
                  JOINT lRing1
                  {
                    OFFSET 5.0395 -0.09 2.4971
                    CHANNELS 3 Zrotation Xrotation Yrotation
                    JOINT lRing2
                    {
                      OFFSET 3.7921 -1.552 1.4806
                      CHANNELS 3 Zrotation Xrotation Yrotation
                      JOINT lRing2_End
                      {
                        OFFSET 1.4655 -1.808 0.9609
                        CHANNELS 3 Zrotation Xrotation Yrotation
                        End Site
                        {
                          OFFSET 0.0147 -0.0181 0.0096
                        }
                      }
                    }
                  }
                  JOINT lPinky1
                  {
                    OFFSET 4.9141 -1.269 0.3591
                    CHANNELS 3 Zrotation Xrotation Yrotation
                    JOINT lPinky2
                    {
                      OFFSET 3.1477 -1.685 0.8462
                      CHANNELS 3 Zrotation Xrotation Yrotation
                      JOINT lPinky2_End
                      {
                        OFFSET 0.8055 -1.585 0.7955
                        CHANNELS 3 Zrotation Xrotation Yrotation
                        End Site
                        {
                          OFFSET 0.0081 -0.0158 0.008
                        }
                      }
                    }
                  }
                }
              }
            }
          }
        }
        JOINT rCollar
        {
          OFFSET -1.7069 20.075 5.0056
          CHANNELS 3 Zrotation Xrotation Yrotation
          JOINT rShldr
          {
            OFFSET -13.6458 -0.047 -4.849
            CHANNELS 3 Zrotation Xrotation Yrotation
            JOINT rForeArm
            {
              OFFSET -28.3255 -0.9759 2.2888
              CHANNELS 3 Zrotation Xrotation Yrotation
              JOINT rHand
              {
                OFFSET -22.1583 -0.53 10.8316
                CHANNELS 3 Zrotation Xrotation Yrotation
                JOINT rThumb1
                {
                  OFFSET -0.786 0.112 2.5817
                  CHANNELS 3 Zrotation Xrotation Yrotation
                  JOINT rThumb2
                  {
                    OFFSET -0.3601 -0.878 4.2331
                    CHANNELS 3 Zrotation Xrotation Yrotation
                    JOINT rThumb2_End
                    {
                      OFFSET -1.8127 -1.216 2.2227
                      CHANNELS 3 Zrotation Xrotation Yrotation
                      End Site
                      {
                        OFFSET -0.0181 -0.0122 0.0222
                      }
                    }
                  }
                }
                JOINT rCarpal1
                {
                  OFFSET -0.9571 1.114 1.7695
                  CHANNELS 3 Zrotation Xrotation Yrotation
                  JOINT rIndex1
                  {
                    OFFSET -4.1246 0.487 4.1451
                    CHANNELS 3 Zrotation Xrotation Yrotation
                    JOINT rIndex2
                    {
                      OFFSET -3.4052 -1.454 2.7682
                      CHANNELS 3 Zrotation Xrotation Yrotation
                      JOINT rIndex2_End
                      {
                        OFFSET -1.4531 -1.795 1.2713
                        CHANNELS 3 Zrotation Xrotation Yrotation
                        End Site
                        {
                          OFFSET -0.0145 -0.018 0.0127
                        }
                      }
                    }
                  }
                  JOINT rMid1
                  {
                    OFFSET -5.6954 0.21 2.1184
                    CHANNELS 3 Zrotation Xrotation Yrotation
                    JOINT rMid2
                    {
                      OFFSET -3.9766 -1.54 2.3863
                      CHANNELS 3 Zrotation Xrotation Yrotation
                      JOINT rMid2_End
                      {
                        OFFSET -1.4042 -1.926 1.125
                        CHANNELS 3 Zrotation Xrotation Yrotation
                        End Site
                        {
                          OFFSET -0.014 -0.0193 0.0113
                        }
                      }
                    }
                  }
                }
                JOINT rCarpal2
                {
                  OFFSET -2.0956 0.66 -0.3894
                  CHANNELS 3 Zrotation Xrotation Yrotation
                  JOINT rRing1
                  {
                    OFFSET -5.0395 -0.09 2.4971
                    CHANNELS 3 Zrotation Xrotation Yrotation
                    JOINT rRing2
                    {
                      OFFSET -3.7921 -1.552 1.4806
                      CHANNELS 3 Zrotation Xrotation Yrotation
                      JOINT rRing2_End
                      {
                        OFFSET -1.4655 -1.808 0.9609
                        CHANNELS 3 Zrotation Xrotation Yrotation
                        End Site
                        {
                          OFFSET -0.0147 -0.0181 0.0096
                        }
                      }
                    }
                  }
                  JOINT rPinky1
                  {
                    OFFSET -4.9141 -1.269 0.3592
                    CHANNELS 3 Zrotation Xrotation Yrotation
                    JOINT rPinky2
                    {
                      OFFSET -3.1477 -1.685 0.8462
                      CHANNELS 3 Zrotation Xrotation Yrotation
                      JOINT rPinky2_End
                      {
                        OFFSET -0.8055 -1.585 0.7955
                        CHANNELS 3 Zrotation Xrotation Yrotation
                        End Site
                        {
                          OFFSET -0.0081 -0.0158 0.008
                        }
                      }
                    }
                  }
                }
              }
            }
          }
        }
      }
    }
  }
  JOINT lThigh
  {
    OFFSET 8.367 -8.2066 0.5982
    CHANNELS 3 Zrotation Xrotation Yrotation
    JOINT lShin
    {
      OFFSET 2.1923 -43.463 -0.4932
      CHANNELS 3 Zrotation Xrotation Yrotation
      JOINT lFoot
      {
        OFFSET 0.7333 -45.8593 -2.6451
        CHANNELS 3 Zrotation Xrotation Yrotation
        End Site
        {
          OFFSET 2.6618 -4.2699 12.3931
        }
      }
    }
  }
  JOINT rThigh
  {
    OFFSET -8.367 -8.2066 0.5982
    CHANNELS 3 Zrotation Xrotation Yrotation
    JOINT rShin
    {
      OFFSET -2.1923 -43.463 -0.4931
      CHANNELS 3 Zrotation Xrotation Yrotation
      JOINT rFoot
      {
        OFFSET -0.7333 -45.8593 -2.6451
        CHANNELS 3 Zrotation Xrotation Yrotation
        End Site
        {
          OFFSET -2.6618 -4.2699 12.3931
        }
      }
    }
  }
}
MOTION
Frames:	6
Frame Time:	0.0333333
0 91.7903 2.51682 0 0 -0 0 0 -0 0 0 -0 0 0 -0 0 0 -0 0 0 -0 0 0 -0 1.66051 0.0835086 5.75766 -0.0175111 0.895433 15.7816 7.95139e-016 -1.98785e-016 -0 5.46658e-016 -3.97569e-016 -0 5.96354e-016 0 -0 3.97569e-016 1.98785e-016 9.54166e-015 1.49089e-016 -3.97569e-016 -0 6.4605e-016 0 3.18055e-015 5.96354e-016 0 3.18055e-015 8.94531e-016 -1.98785e-016 6.36111e-015 6.4605e-016 0 3.18055e-015 5.96354e-016 0 3.18055e-015 8.94531e-016 -1.98785e-016 6.36111e-015 1.49089e-016 -3.97569e-016 -0 6.4605e-016 0 3.18055e-015 5.96354e-016 0 3.18055e-015 8.94531e-016 -1.98785e-016 6.36111e-015 6.4605e-016 0 3.18055e-015 5.96354e-016 0 3.18055e-015 8.94531e-016 -1.98785e-016 6.36111e-015 0 0 -0 -1.4496 0.0636048 -5.0245 -1.74811 1.20616 -16.8394 -1.19271e-015 1.98785e-016 -3.18055e-015 -3.97569e-016 1.98785e-016 -3.18055e-015 -2.98177e-016 1.98785e-016 -3.18055e-015 -2.98177e-016 3.97569e-016 -0 4.96962e-016 0 -6.36111e-015 -9.93923e-017 3.97569e-016 -0 -8.94531e-016 5.96354e-016 -0 -3.97569e-016 3.97569e-016 -0 -9.93923e-017 3.97569e-016 -0 -8.94531e-016 5.96354e-016 -0 -3.97569e-016 3.97569e-016 -0 4.96962e-016 0 -6.36111e-015 -9.93923e-017 3.97569e-016 -0 -8.94531e-016 5.96354e-016 -0 -3.97569e-016 3.97569e-016 -0 -9.93923e-017 3.97569e-016 -0 -8.94531e-016 5.96354e-016 -0 -3.97569e-016 3.97569e-016 -0 -4.66111 -0.998717 0.12318 0.00986924 1.54847 0.176523 4.65186 -0.572283 -0.254274 4.66111 -0.998765 -0.123176 -0.00986867 1.54869 -0.176537 -4.65186 -0.572453 0.25427 
45.5346 -5.5094 45.9127 -168.753 62.6796 -6.75477e-007 0.593901 7.52576 -0.585805 1.283 15.0445 -1.2677 1.283 15.0445 -1.26769 -0.000113372 15.0376 2.05093e-005 -1.46108e-007 0.285525 -8.4347e-007 -47.213 -4.01885 0.781696 3.34925 58.7867 5.50809 7.1614 38.7748 8.26845 6.49129 9.79026 -5.9818 4.75265e-007 -7.79438e-007 2.85928e-006 1.20358e-006 -4.89218e-007 -2.6604e-006 7.08181e-008 -8.95815e-007 2.78789e-006 0 0 -3.18055e-015 4.75265e-007 -7.79438e-007 2.85928e-006 1.20358e-006 -4.89218e-007 -2.6604e-006 7.08181e-008 -8.95815e-007 2.78789e-006 4.75265e-007 -7.79438e-007 2.85928e-006 1.20358e-006 -4.89218e-007 -2.6604e-006 7.08181e-008 -8.95815e-007 2.78789e-006 0 0 -3.18055e-015 4.75265e-007 -7.79438e-007 2.85928e-006 1.20358e-006 -4.89218e-007 -2.6604e-006 7.08181e-008 -8.95815e-007 2.78789e-006 4.75265e-007 -7.79438e-007 2.85928e-006 1.20358e-006 -4.89218e-007 -2.6604e-006 7.08181e-008 -8.95815e-007 2.78789e-006 50.6149 -3.91569 -14.6626 43.6135 -11.8752 64.9534 -105.346 77.185 136.202 0.882235 -31.7961 10.7584 -4.77083e-015 3.18055e-015 -9.54166e-015 2.30935e-006 1.29916e-007 2.88469e-006 3.18055e-015 -6.36111e-015 3.18055e-015 -3.18055e-015 3.18055e-015 -9.54166e-015 1.59028e-015 0 -9.54166e-015 2.30935e-006 1.29916e-007 2.88469e-006 4.77083e-015 6.36111e-015 -0 1.59028e-015 0 -9.54166e-015 2.30935e-006 1.29916e-007 2.88469e-006 4.77083e-015 6.36111e-015 -0 -3.18055e-015 3.18055e-015 -9.54166e-015 1.59028e-015 0 -9.54166e-015 2.30935e-006 1.29916e-007 2.88469e-006 4.77083e-015 6.36111e-015 -0 1.59028e-015 0 -9.54166e-015 2.30935e-006 1.29916e-007 2.88469e-006 4.77083e-015 6.36111e-015 -0 64.966 -52.7381 98.2073 128.283 40.8864 -117.814 27.3315 -1.53227 8.63999 -48.4953 -54.4465 -85.0428 -118.16 36.7459 131.677 -17.01 7.62959 -33.1027 
42.4665 -1.77819 43.1918 179.997 58.9977 -1.13208e-010 0.553229 7.25917 -0.552762 1.19223 14.5122 -1.19135 1.19223 14.5122 -1.19135 2.17005e-006 14.7712 -2.55842e-006 -3.01074e-007 0.785981 1.57429e-007 -45.2023 -3.73926 -0.395336 3.04308 55.377 7.57514 6.93936 36.4686 7.98199 6.14798 8.39174 -5.51454 0 0 -0 -8.2563e-007 -1.91237e-007 -8.41351e-008 -8.2563e-007 -1.91237e-007 -8.41351e-008 7.95139e-016 0 -0 7.95139e-016 1.59028e-015 6.36111e-015 -8.2563e-007 -1.91237e-007 -8.41351e-008 -8.2563e-007 -1.91237e-007 -8.41351e-008 7.95139e-016 1.59028e-015 6.36111e-015 -8.2563e-007 -1.91237e-007 -8.41351e-008 -8.2563e-007 -1.91237e-007 -8.41351e-008 7.95139e-016 0 -0 7.95139e-016 1.59028e-015 6.36111e-015 -8.2563e-007 -1.91237e-007 -8.41351e-008 -8.2563e-007 -1.91237e-007 -8.41351e-008 7.95139e-016 1.59028e-015 6.36111e-015 -8.2563e-007 -1.91237e-007 -8.41351e-008 -8.2563e-007 -1.91237e-007 -8.41351e-008 47.425 -4.32023 -13.7541 40.4301 -12.8941 61.9262 -72.8998 84.9063 103.654 -0.270173 -30.3028 9.86835 -5.96645e-007 1.32168e-006 8.70976e-007 3.96279e-006 8.09358e-006 9.01561e-007 1.46747e-006 -1.48701e-006 2.96117e-006 1.59028e-015 9.54166e-015 -3.18055e-015 -5.96645e-007 1.32168e-006 8.70976e-007 3.96279e-006 8.09358e-006 9.01561e-007 1.46747e-006 -1.48701e-006 2.96117e-006 -5.96645e-007 1.32168e-006 8.70976e-007 3.96279e-006 8.09358e-006 9.01561e-007 1.46747e-006 -1.48701e-006 2.96117e-006 1.59028e-015 9.54166e-015 -3.18055e-015 -5.96645e-007 1.32168e-006 8.70976e-007 3.96279e-006 8.09358e-006 9.01561e-007 1.46747e-006 -1.48701e-006 2.96117e-006 -5.96645e-007 1.32168e-006 8.70976e-007 3.96279e-006 8.09358e-006 9.01561e-007 1.46747e-006 -1.48701e-006 2.96117e-006 58.4305 -55.3935 91.7026 122.171 45.5792 -115.181 26.0656 -1.65979 7.99999 -42.6881 -55.2672 -78.43 -114.467 43.1779 129.907 -16.5184 6.58723 -31.2718 
42.4726 -1.80051 42.9316 179.997 58.9977 -1.13208e-010 0.551399 7.42567 -0.557387 1.19155 14.8452 -1.20288 1.19155 14.8452 -1.20288 -4.56988e-006 15.3548 5.60405e-006 -5.20943e-009 1.2746 3.50626e-007 -45.9234 -3.68428 -1.46397 2.79359 55.4135 9.54878 7.44113 36.3455 7.03581 6.24134 7.58729 -5.42869 -7.95139e-016 0 -0 8.2567e-007 1.91374e-007 8.30625e-008 2.38542e-015 -4.77083e-015 -0 -8.82781e-032 -1.59028e-015 -3.18055e-015 -2.38542e-015 1.59028e-015 1.27222e-014 8.2567e-007 1.91374e-007 8.30625e-008 1.59028e-015 0 1.59028e-014 -2.38542e-015 1.59028e-015 1.27222e-014 8.2567e-007 1.91374e-007 8.30625e-008 1.59028e-015 0 1.59028e-014 -8.82781e-032 -1.59028e-015 -3.18055e-015 -2.38542e-015 1.59028e-015 1.27222e-014 8.2567e-007 1.91374e-007 8.30625e-008 1.59028e-015 0 1.59028e-014 -2.38542e-015 1.59028e-015 1.27222e-014 8.2567e-007 1.91374e-007 8.30625e-008 1.59028e-015 0 1.59028e-014 47.1717 -4.90692 -13.7166 40.6485 -12.8613 62.835 -82.5481 83.9591 114.473 -0.962125 -30.517 9.95703 -1.59028e-015 -3.18055e-015 6.36111e-015 1.59028e-015 -3.18055e-015 3.18055e-015 -0 0 3.18055e-015 -1.59028e-015 6.36111e-015 -0 -5.29669e-031 3.18055e-015 9.54166e-015 -7.95139e-015 -3.18055e-015 6.36111e-015 1.59028e-015 -1.59028e-014 9.54166e-015 -5.29669e-031 3.18055e-015 9.54166e-015 -7.95139e-015 -3.18055e-015 6.36111e-015 1.59028e-015 -1.59028e-014 9.54166e-015 -1.59028e-015 6.36111e-015 -0 -5.29669e-031 3.18055e-015 9.54166e-015 -7.95139e-015 -3.18055e-015 6.36111e-015 1.59028e-015 -1.59028e-014 9.54166e-015 -5.29669e-031 3.18055e-015 9.54166e-015 -7.95139e-015 -3.18055e-015 6.36111e-015 1.59028e-015 -1.59028e-014 9.54166e-015 59.2646 -55.6754 92.5164 122.739 44.9578 -115.916 26.0279 -1.97288 7.89899 -43.4332 -55.4711 -79.0741 -114.481 43.1476 130.008 -16.548 6.55173 -31.2868 
42.4789 -1.82285 42.6713 179.997 58.9977 -1.13208e-010 0.549555 7.59233 -0.561993 1.1909 15.1783 -1.2144 1.19089 15.1783 -1.2144 2.33368e-005 15.9379 -5.85038e-006 -5.13623e-007 1.76327 -4.01599e-007 -46.6439 -3.6158 -2.53268 2.54138 55.445 11.5279 7.93949 36.2151 6.09236 6.33585 6.78262 -5.34205 -3.27762e-007 2.44325e-007 3.30285e-006 -1.13214e-006 -1.45309e-006 -3.40565e-006 -3.27762e-007 2.44325e-007 3.30285e-006 7.95139e-016 -1.59028e-015 -0 -3.27762e-007 2.44325e-007 3.30285e-006 -1.13214e-006 -1.45309e-006 -3.40565e-006 -3.27762e-007 2.44325e-007 3.30285e-006 -3.27762e-007 2.44325e-007 3.30285e-006 -1.13214e-006 -1.45309e-006 -3.40565e-006 -3.27762e-007 2.44325e-007 3.30285e-006 7.95139e-016 -1.59028e-015 -0 -3.27762e-007 2.44325e-007 3.30285e-006 -1.13214e-006 -1.45309e-006 -3.40565e-006 -3.27762e-007 2.44325e-007 3.30285e-006 -3.27762e-007 2.44325e-007 3.30285e-006 -1.13214e-006 -1.45309e-006 -3.40565e-006 -3.27762e-007 2.44325e-007 3.30285e-006 46.9185 -5.49391 -13.6818 40.8664 -12.8251 63.744 -89.577 82.7572 122.651 -1.65544 -30.7323 10.0429 6.36111e-015 0 -4.77083e-015 -3.52918e-006 -9.21045e-007 -1.3407e-006 7.00629e-006 -2.89503e-007 3.64684e-006 6.36111e-015 9.54166e-015 -4.77083e-015 3.18055e-015 -1.27222e-014 4.77083e-015 -3.52918e-006 -9.21045e-007 -1.3407e-006 7.00629e-006 -2.89503e-007 3.64684e-006 3.18055e-015 -1.27222e-014 4.77083e-015 -3.52918e-006 -9.21045e-007 -1.3407e-006 7.00629e-006 -2.89503e-007 3.64684e-006 6.36111e-015 9.54166e-015 -4.77083e-015 3.18055e-015 -1.27222e-014 4.77083e-015 -3.52918e-006 -9.21045e-007 -1.3407e-006 7.00629e-006 -2.89503e-007 3.64684e-006 3.18055e-015 -1.27222e-014 4.77083e-015 -3.52918e-006 -9.21045e-007 -1.3407e-006 7.00629e-006 -2.89503e-007 3.64684e-006 60.1117 -55.9521 93.3438 123.293 44.3308 -116.636 25.9884 -2.28508 7.79857 -43.9171 -55.7789 -79.5127 -114.516 43.1635 129.944 -16.5775 6.51635 -31.302 
42.4852 -1.84523 42.4108 179.997 58.9977 -1.13208e-010 0.547704 7.75887 -0.566585 1.19026 15.5115 -1.22592 1.19026 15.5116 -1.22592 5.20663e-006 16.522 6.85658e-007 -9.68818e-007 2.25199 -2.02205e-007 -47.3634 -3.53389 -3.60102 2.28687 55.4716 13.5112 8.43463 36.0788 5.15154 6.43181 5.97762 -5.25686 1.91719e-007 -8.25751e-007 6.15168e-008 3.03445e-007 2.48244e-007 -9.84941e-008 8.25751e-007 1.91719e-007 8.0774e-008 -2.38542e-015 1.59028e-015 3.18055e-015 1.91719e-007 -8.25751e-007 6.15168e-008 3.03445e-007 2.48244e-007 -9.84941e-008 8.25751e-007 1.91719e-007 8.0774e-008 1.91719e-007 -8.25751e-007 6.15168e-008 3.03445e-007 2.48244e-007 -9.84941e-008 8.25751e-007 1.91719e-007 8.0774e-008 -2.38542e-015 1.59028e-015 3.18055e-015 1.91719e-007 -8.25751e-007 6.15168e-008 3.03445e-007 2.48244e-007 -9.84941e-008 8.25751e-007 1.91719e-007 8.0774e-008 1.91719e-007 -8.25751e-007 6.15168e-008 3.03445e-007 2.48244e-007 -9.84941e-008 8.25751e-007 1.91719e-007 8.0774e-008 46.6654 -6.08114 -13.6495 41.0837 -12.7855 64.653 -94.5822 81.3348 128.781 -2.35014 -30.9485 10.126 1.22694e-006 -6.25616e-007 2.28147e-006 -1.59028e-015 0 3.18055e-015 -1.22694e-006 6.25616e-007 -2.28147e-006 -1.59028e-015 3.18055e-015 -3.18055e-015 1.22694e-006 -6.25616e-007 2.28147e-006 -4.77083e-015 0 3.18055e-015 -1.22694e-006 6.25616e-007 -2.28147e-006 1.22694e-006 -6.25616e-007 2.28147e-006 -4.77083e-015 0 3.18055e-015 -1.22694e-006 6.25616e-007 -2.28147e-006 -1.59028e-015 3.18055e-015 -3.18055e-015 1.22694e-006 -6.25616e-007 2.28147e-006 -4.77083e-015 0 3.18055e-015 -1.22694e-006 6.25616e-007 -2.28147e-006 1.22694e-006 -6.25616e-007 2.28147e-006 -4.77083e-015 0 3.18055e-015 -1.22694e-006 6.25616e-007 -2.28147e-006 60.9685 -56.2249 94.1822 123.832 43.6992 -117.339 25.9468 -2.59658 7.69875 -44.5199 -56.04 -80.0475 -114.542 43.1604 129.948 -16.607 6.48099 -31.3174 
